<?xml version="1.0" encoding="UTF-8"?>
<svg version="1.1" xmlns="http://www.w3.org/2000/svg" width="358" height="328">
<path d="M0 0 C118.14 0 236.28 0 358 0 C358 108.24 358 216.48 358 328 C239.86 328 121.72 328 0 328 C0 219.76 0 111.52 0 0 Z " fill="#FEFDFD" transform="translate(0,0)"/>
<path d="M0 0 C0.53238281 0.35707031 1.06476563 0.71414062 1.61328125 1.08203125 C4.63597841 3.11377373 4.63597841 3.11377373 7.23828125 2.76953125 C9.12025386 1.90155454 9.12025386 1.90155454 10.92578125 -0.10546875 C20.07201313 -4.27743417 31.9047186 -4.76370721 41.67578125 -2.23046875 C51.33444553 1.76102604 60.21202206 9.62072241 64.92578125 18.89453125 C65.42851562 19.77431641 65.42851562 19.77431641 65.94140625 20.671875 C71.51484357 32.24942434 67.57574627 47.32808805 63.92578125 58.89453125 C62.71008144 62.28699084 61.40981091 65.61072093 59.92578125 68.89453125 C59.26578125 68.89453125 58.60578125 68.89453125 57.92578125 68.89453125 C57.57193359 70.18230469 57.57193359 70.18230469 57.2109375 71.49609375 C55.78852869 75.25747875 53.83116221 78.14778327 51.36328125 81.26953125 C50.9156543 81.83897461 50.46802734 82.40841797 50.00683594 82.99511719 C40.80847559 94.44268791 27.24970304 104.87032532 12.92578125 108.89453125 C11.93578125 108.89453125 10.94578125 108.89453125 9.92578125 108.89453125 C8.21437656 106.93267709 6.547048 104.93150742 4.92578125 102.89453125 C3.93578125 102.39953125 3.93578125 102.39953125 2.92578125 101.89453125 C2.92578125 101.23453125 2.92578125 100.57453125 2.92578125 99.89453125 C4.14652344 99.42144531 5.36726563 98.94835937 6.625 98.4609375 C28.05721766 89.94174557 42.21174519 78.62505717 52.0234375 57.53515625 C52.75719315 55.6915491 53.34676123 53.79243022 53.92578125 51.89453125 C54.12816406 51.26160156 54.33054687 50.62867188 54.5390625 49.9765625 C56.76116047 41.9195678 57.73296613 31.71167623 54.7578125 23.78125 C50.62143015 16.60372278 45.58761121 12.56535509 37.875 9.66015625 C30.85168386 7.83688477 22.9479114 7.49507844 16.30078125 10.70703125 C14.29417426 11.90164262 12.60902706 13.15538764 10.80078125 14.64453125 C7.97973157 16.52523104 6.24657623 16.42585845 2.92578125 15.89453125 C0.88458337 14.27858293 -1.11494812 12.60889305 -3.07421875 10.89453125 C-10.46596554 7.82685163 -19.78650961 7.4940176 -27.44921875 9.95703125 C-34.70756588 13.31421108 -39.96631529 18.83371883 -43.23046875 26.08984375 C-46.94101 38.42395771 -42.5129413 49.50892472 -36.88671875 60.33203125 C-29.01964733 74.95275922 -18.4402791 86.72659373 -6.65625 98.28125 C-4.21923413 100.76640445 -1.97022797 103.40561068 0.28125 106.05859375 C2.04188451 108.1071517 2.04188451 108.1071517 4.86328125 110.39453125 C7.08254246 113.08454484 7.24648973 113.70171602 7.30078125 117.01953125 C6.92578125 120.89453125 6.92578125 120.89453125 5.92578125 123.89453125 C1.68055677 123.06619477 -0.48490304 121.69653754 -3.1484375 118.43359375 C-6.7466042 114.19084458 -10.62407946 110.3231577 -14.59912109 106.43505859 C-33.86566293 87.58968108 -54.87813987 64.68437974 -55.51171875 36.14453125 C-55.10805741 23.56592307 -51.00760361 14.35750534 -41.88671875 5.64453125 C-30.43157486 -3.85392969 -13.75005855 -7.32818563 0 0 Z " fill="#CE1A22" transform="translate(187.07421875,164.10546875)"/>
<path d="M0 0 C0.99 0.66 1.98 1.32 3 2 C3.73078294 8.6825203 2.03241873 14.25629414 -0.0625 20.5625 C-0.53731812 22.017771 -0.53731812 22.017771 -1.02172852 23.50244141 C-3.53690243 31.01869521 -6.49192227 38.12143752 -10.08203125 45.18603516 C-11.05459253 47.10787832 -11.9977175 49.04240135 -12.9375 50.98046875 C-18.54879871 62.48404431 -24.4862671 73.74842949 -31.98046875 84.15234375 C-35.11863424 88.57733919 -38.10041871 93.1049435 -41.09570312 97.62744141 C-43.90242808 101.86268181 -46.73173014 106.07940019 -49.60546875 110.26953125 C-56.59497512 120.50573387 -63.02193008 130.63048855 -68 142 C-68.45117188 142.99644531 -68.90234375 143.99289063 -69.3671875 145.01953125 C-74.92690303 159.03384867 -72.84280219 175.20263662 -67.23632812 188.86035156 C-63.83752043 196.64826703 -59.64692323 203.63600715 -54 210 C-53.50371094 210.58910156 -53.00742188 211.17820313 -52.49609375 211.78515625 C-44.80699986 220.24508663 -34.97185178 225.625087 -24.1875 228.9375 C-16.19310879 231.40171454 -11.7083345 234.87713499 -7 242 C-7 242.33 -7 242.66 -7 243 C-23.34162516 244.55799392 -39.57694308 236.93199636 -52.25 227.125 C-53.85075199 225.7703183 -55.43453311 224.39530744 -57 223 C-57.77085938 222.32324219 -58.54171875 221.64648438 -59.3359375 220.94921875 C-65.6035502 215.09873385 -69.83889022 208.45532169 -74 201 C-74.4846875 200.14277344 -74.969375 199.28554687 -75.46875 198.40234375 C-84.7290392 181.0393015 -86.81643411 161.03047068 -81.2109375 142.24609375 C-79.91964022 138.78458395 -78.45515534 135.86132256 -76.24609375 132.90625 C-74.83985732 130.8870405 -74.83985732 130.8870405 -73.7421875 127.91796875 C-71.64178719 122.87088711 -68.6399466 118.39522114 -65.6875 113.8125 C-65.07084473 112.84779785 -64.45418945 111.8830957 -63.81884766 110.88916016 C-59.66055203 104.43488602 -55.32838582 98.12816109 -50.875 91.875 C-42.0279607 79.44453807 -34.34726134 66.36100567 -27 53 C-26.34 53 -25.68 53 -25 53 C-24.62875 51.80375 -24.2575 50.6075 -23.875 49.375 C-21.38540137 41.88260602 -18.10368484 34.67003575 -14.86328125 27.4765625 C-12.24645685 21.41545934 -10.78117695 15.25330474 -9.48193359 8.79956055 C-8.15442962 2.55202169 -6.85512573 -0.85689072 0 0 Z " fill="#CD1A22" transform="translate(176,33)"/>
<path d="M0 0 C3.16720363 5.27367048 2.38240095 11.21883201 2.375 17.1875 C2.37367065 19.07505005 2.37367065 19.07505005 2.37231445 21.00073242 C2.21311988 33.59164968 0.14908854 44.47725458 -5 56 C-5.66 56 -6.32 56 -7 56 C-7.33 57.65 -7.66 59.3 -8 61 C-7.30777344 60.95359375 -6.61554688 60.9071875 -5.90234375 60.859375 C15.66826106 60.06362146 34.77546539 70.52948433 50.44384766 84.49755859 C52.52022631 86.50227058 54.29025639 88.67871082 56 91 C55.67 91.66 55.34 92.32 55 93 C53.86691406 92.34644531 53.86691406 92.34644531 52.7109375 91.6796875 C32.51067979 80.75167923 7.33686174 75.00804636 -15.22216797 81.70239258 C-33.29714377 88.0588224 -47.95578998 100.84192301 -58 117 C-59.93306555 111.14999896 -57.26781949 105.65684543 -54.72314453 100.32421875 C-53.22576501 97.5135179 -51.663235 94.75312306 -50.0625 92 C-49.48910889 91.00033203 -48.91571777 90.00066406 -48.32495117 88.97070312 C-42.94766295 79.70313182 -37.07464722 70.82008318 -31 62 C-10.73226041 33.04918156 -10.73226041 33.04918156 0 0 Z " fill="#741C1E" transform="translate(182,59)"/>
<path d="M0 0 C3.16720363 5.27367048 2.38240095 11.21883201 2.375 17.1875 C2.37367065 19.07505005 2.37367065 19.07505005 2.37231445 21.00073242 C2.21311988 33.59164968 0.14908854 44.47725458 -5 56 C-5.66 56 -6.32 56 -7 56 C-7.33 57.65 -7.66 59.3 -8 61 C-7.30777344 60.95359375 -6.61554688 60.9071875 -5.90234375 60.859375 C16.86188307 60.01958798 35.5627394 71.48742537 52 86 C51.505 87.485 51.505 87.485 51 89 C49.515 88.01 49.515 88.01 48 87 C46.01200182 86.29835358 44.01301483 85.62627128 42 85 C42 84.01 42 83.02 42 82 C41.113125 81.731875 40.22625 81.46375 39.3125 81.1875 C36 80 36 80 33.6640625 78.58203125 C16.84798555 68.5959445 -4.51340241 67.10035994 -23.63671875 66.34375 C-26.6834298 66.03235561 -28.44268764 65.60560371 -31 64 C-28.71566144 59.03404661 -26.09023172 54.55272895 -23.0625 50 C-18.76280478 43.44935848 -14.90396894 36.67471487 -11.125 29.8125 C-10.56562744 28.81541016 -10.00625488 27.81832031 -9.42993164 26.79101562 C-5.9146148 20.3287617 -3.65977811 14.15283595 -2 7 C-1.61316589 5.60164593 -1.21854433 4.20539724 -0.8125 2.8125 C-0.544375 1.884375 -0.27625 0.95625 0 0 Z " fill="#0C0707" transform="translate(182,59)"/>
<path d="M0 0 C3.59757189 3.06459828 5.52460381 6.52060039 7.6953125 10.6328125 C8.94809307 12.90582156 10.34158093 14.98925875 11.8125 17.125 C14.16801101 20.88189098 14.74652826 23.52083046 14 28 C12.1875 31.1875 12.1875 31.1875 10 34 C9.55914062 34.70769531 9.11828125 35.41539062 8.6640625 36.14453125 C7 38 7 38 4.73046875 38.53125 C-0.9922193 38.46092511 -4.5725843 37.9954727 -9 34 C-11.87240855 30.64885669 -12.8033611 27.23809974 -12.69140625 22.8046875 C-11.22244325 16.84584324 -7.43161195 11.7518696 -4.09130859 6.67382812 C-2.66488155 4.48600176 -1.32650289 2.24947415 0 0 Z " fill="#CC131B" transform="translate(195,287)"/>
<path d="M0 0 C5.57894737 3.15789474 5.57894737 3.15789474 7 6 C7.50072277 10.25614352 7.23246063 13.26870059 5.0625 16.9375 C3.3931872 19.04435348 2.44061279 19.8749074 -0.16015625 20.61328125 C-4.56204734 20.87048691 -6.47630647 20.41459071 -10 17.625 C-13.12096231 13.52873697 -13.43920353 11.18260163 -13 6 C-9.5802497 0.57556848 -6.30860288 -0.61849048 0 0 Z " fill="#0D0D0D" transform="translate(199,97)"/>
<path d="M0 0 C4.99503071 0.4913145 6.31841769 1.88091769 9.8125 5.375 C11.24554064 8.24108129 11.11894155 10.18800783 10.8125 13.375 C7.65460526 18.95394737 7.65460526 18.95394737 4.8125 20.375 C1.75563036 20.78809049 -1.13868586 20.87409413 -4.1875 20.375 C-7.51907721 17.21000165 -9.04822191 14.60528979 -9.5625 10.0625 C-9.09536625 5.46901813 -7.66709782 4.26052015 -4.1875 1.375 C-3.1875 0.375 -3.1875 0.375 0 0 Z " fill="#EAEAEA" transform="translate(246.1875,300.625)"/>
<path d="M0 0 C2.84769988 1.59790775 5.01077285 3.40659498 7 6 C7.88326609 10.49662735 7.34709742 12.37522464 5.125 16.375 C2.97801724 19.02715517 2.2695817 19.82843491 -1.0234375 20.2734375 C-3.43574538 20.37762355 -5.61437756 20.39052894 -8 20 C-11.08052833 17.07349808 -12.80093018 14.45984533 -13.375 10.25 C-12.8528401 5.7246142 -11.15770622 4.2328897 -8 1 C-5.04206277 -0.47896861 -3.29779776 -0.4355582 0 0 Z " fill="#ECECEC" transform="translate(97,301)"/>
<path d="M0 0 C2.5647293 1.50012468 4.89183465 2.89183465 7 5 C7.66637412 9.52182437 7.74310232 13.71201282 5.0625 17.5625 C1.50195122 20.39640617 -0.38399452 20.90543279 -4.83984375 20.578125 C-7.74074711 19.80175303 -9.50150469 18.32396186 -11.1875 15.84765625 C-12.74883124 12.29712896 -12.55195049 9.86365346 -12 6 C-8.64695006 0.74688842 -6.19417861 -0.5955941 0 0 Z " fill="#EDEDED" transform="translate(120,301)"/>
<path d="M0 0 C9.28571429 0 9.28571429 0 14.625 4.3125 C16.44145505 6.54178574 16.3107491 7.85277072 16.1875 10.6875 C16.16042969 11.49574219 16.13335937 12.30398438 16.10546875 13.13671875 C16.05326172 14.05904297 16.05326172 14.05904297 16 15 C15.34 15 14.68 15 14 15 C13.7525 15.61875 13.505 16.2375 13.25 16.875 C11.69447068 19.51939985 10.92378529 20.07669938 8 21 C5.36 21 2.72 21 0 21 C0 14.07 0 7.14 0 0 Z " fill="#303030" transform="translate(132,301)"/>
<path d="M0 0 C9.2 0 9.2 0 14 4 C16.38313638 7.57470457 16.64837918 8.78553535 16 13 C13.55693833 16.76863456 11.30966905 19.56344365 7 21 C4.69 21 2.38 21 0 21 C0 14.07 0 7.14 0 0 Z " fill="#222222" transform="translate(160,301)"/>
<path d="M0 0 C0.66 0.33 1.32 0.66 2 1 C1.72285156 2.00417969 1.44570312 3.00835937 1.16015625 4.04296875 C-1.16185204 12.71748045 -2.69104547 20.97852784 -3 30 C-2.071875 30.433125 -2.071875 30.433125 -1.125 30.875 C1 32 1 32 3 34 C4.31747324 34.69748583 5.64914193 35.36959957 7 36 C5.28960219 37.71039781 3.14906044 37.29301542 0.8125 37.375 C-3.08392938 37.34966561 -5.56415643 37.17958046 -8.625 34.6875 C-11.82978712 31.06103036 -12.62906073 27.71892407 -12.62109375 22.875 C-11.32149028 16.85922543 -7.43546452 11.75772641 -4.09130859 6.67382812 C-2.66488155 4.48600176 -1.32650289 2.24947415 0 0 Z " fill="#78181C" transform="translate(195,287)"/>
<path d="M0 0 C3.3 0 6.6 0 10 0 C13 3 13 3 13.07421875 5.04296875 C12.71614583 7.02864583 12.35807292 9.01432292 12 11 C12.66 11 13.32 11 14 11 C14.3125 13.75 14.3125 13.75 14 17 C12.0625 19.375 12.0625 19.375 9 21 C6.03 21 3.06 21 0 21 C0 14.07 0 7.14 0 0 Z " fill="#414141" transform="translate(51,301)"/>
<path d="M0 0 C10 0 10 0 14 3 C14.375 6.5625 14.375 6.5625 14 10 C13.34 10.66 12.68 11.32 12 12 C12.27034634 14.43717258 12.27034634 14.43717258 13 17 C13.185625 17.763125 13.37125 18.52625 13.5625 19.3125 C13.706875 19.869375 13.85125 20.42625 14 21 C12.68 21 11.36 21 10 21 C9.34 18.69 8.68 16.38 8 14 C6.35 14 4.7 14 3 14 C3 16.31 3 18.62 3 21 C2.01 21 1.02 21 0 21 C0 14.07 0 7.14 0 0 Z " fill="#5F5F5F" transform="translate(261,301)"/>
<path d="M0 0 C2.31621682 3.26995315 1.95362225 5.78766192 1.41186523 9.62841797 C0.6405746 14.06962554 -0.42804342 18.43585443 -1.5 22.8125 C-1.72558594 23.75287109 -1.95117188 24.69324219 -2.18359375 25.66210938 C-3.02767913 29.1558237 -3.86287027 32.58861082 -5 36 C-6.485 36.495 -6.485 36.495 -8 37 C-8.99 36.01 -9.98 35.02 -11 34 C-11.33 34.99 -11.66 35.98 -12 37 C-12.66 37 -13.32 37 -14 37 C-12.52023712 32.0700128 -10.42725893 27.72900413 -8.0625 23.1875 C-4.2126088 15.63602249 -1.08799913 8.48639323 0 0 Z " fill="#6F2427" transform="translate(182,59)"/>
<path d="M0 0 C5.04574923 1.26143731 5.53470277 2.76327939 8.25 7.0625 C8.95640625 8.16722656 9.6628125 9.27195312 10.390625 10.41015625 C10.92171875 11.26480469 11.4528125 12.11945313 12 13 C12.33 8.71 12.66 4.42 13 0 C13.99 0 14.98 0 16 0 C16 6.6 16 13.2 16 20 C10.96420897 18.74105224 10.54622902 17.30646807 7.875 13 C5.56747907 8.83084769 5.56747907 8.83084769 2 6 C2 10.62 2 15.24 2 20 C1.34 20 0.68 20 0 20 C0 13.4 0 6.8 0 0 Z " fill="#303030" transform="translate(216,301)"/>
<path d="M0 0 C2.84769988 1.59790775 5.01077285 3.40659498 7 6 C7.88326609 10.49662735 7.34709742 12.37522464 5.125 16.375 C2.97801724 19.02715517 2.2695817 19.82843491 -1.0234375 20.2734375 C-3.43574538 20.37762355 -5.61437756 20.39052894 -8 20 C-11.08052833 17.07349808 -12.80093018 14.45984533 -13.375 10.25 C-12.8528401 5.7246142 -11.15770622 4.2328897 -8 1 C-5.04206277 -0.47896861 -3.29779776 -0.4355582 0 0 Z M-8.375 4.625 C-10.49970879 7.73034361 -10.60386292 9.3013396 -10 13 C-8.610911 16.04913936 -8.610911 16.04913936 -6 18 C-2.17507176 18.067104 0.01459116 17.85825932 2.9375 15.3125 C4.33817538 12.26397123 4.4842732 10.32073048 4 7 C2.5 4.5 2.5 4.5 0 3 C-3.6717087 2.38804855 -5.28813568 2.51293494 -8.375 4.625 Z " fill="#2A2A2A" transform="translate(97,301)"/>
<path d="M0 0 C4.99503071 0.4913145 6.31841769 1.88091769 9.8125 5.375 C11.24554064 8.24108129 11.11894155 10.18800783 10.8125 13.375 C7.65460526 18.95394737 7.65460526 18.95394737 4.8125 20.375 C1.75563036 20.78809049 -1.13868586 20.87409413 -4.1875 20.375 C-7.51907721 17.21000165 -9.04822191 14.60528979 -9.5625 10.0625 C-9.09536625 5.46901813 -7.66709782 4.26052015 -4.1875 1.375 C-3.1875 0.375 -3.1875 0.375 0 0 Z M-5.125 4.9375 C-6.60032332 8.32206527 -6.64424603 10.72103178 -6.1875 14.375 C-4.79064994 17.0219872 -4.79064994 17.0219872 -2.1875 18.375 C1.60064147 18.375 3.85179943 18.2117392 6.75 15.6875 C8.15067538 12.63897123 8.2967732 10.69573048 7.8125 7.375 C6.37588689 4.85493156 6.37588689 4.85493156 3.8125 3.375 C-1.01974983 2.6809728 -1.01974983 2.6809728 -5.125 4.9375 Z " fill="#262626" transform="translate(246.1875,300.625)"/>
<path d="M0 0 C2.5647293 1.50012468 4.89183465 2.89183465 7 5 C7.66637412 9.52182437 7.74310232 13.71201282 5.0625 17.5625 C1.50195122 20.39640617 -0.38399452 20.90543279 -4.83984375 20.578125 C-7.74074711 19.80175303 -9.50150469 18.32396186 -11.1875 15.84765625 C-12.74883124 12.29712896 -12.55195049 9.86365346 -12 6 C-8.64695006 0.74688842 -6.19417861 -0.5955941 0 0 Z M-7.9375 4 C-9.65841319 7.23936601 -9.63857688 10.47363655 -9 14 C-7.03221339 16.91523942 -5.94277758 17.81144448 -2.5 18.5 C0.94277758 17.81144448 2.03221339 16.91523942 4 14 C4.63857688 10.47363655 4.65841319 7.23936601 2.9375 4 C-0.61911887 2.16432575 -4.38088113 2.16432575 -7.9375 4 Z " fill="#303030" transform="translate(120,301)"/>
<path d="M0 0 C5.23607896 -0.65450987 8.09046826 0.90309701 12.36328125 3.61328125 C14 5 14 5 15 8 C17.31939207 8.7136591 19.65523449 9.3747292 22 10 C24.9375 11.4375 24.9375 11.4375 27 13 C27 13.99 27 14.98 27 16 C26.24460938 15.56429687 25.48921875 15.12859375 24.7109375 14.6796875 C7.08003569 5.14165865 -11.0955339 1.95927177 -31 2 C-31 1.67 -31 1.34 -31 1 C-27.12501596 0.97082766 -23.25006042 0.95314327 -19.375 0.9375 C-18.28058594 0.92912109 -17.18617188 0.92074219 -16.05859375 0.91210938 C-14.46337891 0.90727539 -14.46337891 0.90727539 -12.8359375 0.90234375 C-11.37486572 0.89448853 -11.37486572 0.89448853 -9.88427734 0.88647461 C-6.85124679 1.00585494 -3.98084732 1.44133276 -1 2 C-0.67 1.34 -0.34 0.68 0 0 Z " fill="#794C4E" transform="translate(210,136)"/>
<path d="M0 0 C0.99 0.66 1.98 1.32 3 2 C3 2.66 3 3.32 3 4 C0.36 4 -2.28 4 -5 4 C-5.33 4.99 -5.66 5.98 -6 7 C-4.3603125 7.4021875 -4.3603125 7.4021875 -2.6875 7.8125 C2.53025937 9.49279539 2.53025937 9.49279539 4 12 C4.1875 15.6875 4.1875 15.6875 4 19 C1.22296649 20.88838279 -0.18729234 20.99354164 -3.625 20.875 C-4.73875 20.58625 -5.8525 20.2975 -7 20 C-7.66 18.68 -8.32 17.36 -9 16 C-6.03 16.33 -3.06 16.66 0 17 C0 15.68 0 14.36 0 13 C-1.11375 12.731875 -2.2275 12.46375 -3.375 12.1875 C-7 11 -7 11 -9 8 C-9.35384949 5.16920408 -9.3920891 3.63169911 -7.875 1.1875 C-5.15523346 -0.53501881 -3.15413751 -0.32855599 0 0 Z " fill="#515151" transform="translate(288,301)"/>
<path d="M0 0 C2.475 0.99 2.475 0.99 5 2 C4.29573599 5.13651598 3.26593833 8.02092247 2.0625 11 C1.72347656 11.845625 1.38445312 12.69125 1.03515625 13.5625 C0.10255158 15.75852004 -0.90599241 17.88066691 -2 20 C-2.66 19.67 -3.32 19.34 -4 19 C-4.625 15.9375 -4.625 15.9375 -5 13 C-6.65 13.66 -8.3 14.32 -10 15 C-8.4274017 10.67535468 -6.4611743 6.87821405 -4 3 C-3.01 2.67 -2.02 2.34 -1 2 C-0.67 1.34 -0.34 0.68 0 0 Z " fill="#321113" transform="translate(171,93)"/>
<path d="M0 0 C6 0 6 0 8.375 1.625 C10.51323431 4.75011169 10.6829669 6.28162465 10 10 C7.8125 12.875 7.8125 12.875 5 15 C3.35 15 1.7 15 0 15 C0 10.05 0 5.1 0 0 Z " fill="#EBEBEB" transform="translate(135,304)"/>
<path d="M0 0 C3.3 0 6.6 0 10 0 C13 3 13 3 13.1875 5.6875 C13.125625 6.450625 13.06375 7.21375 13 8 C12.34 8 11.68 8 11 8 C11 6.68 11 5.36 11 4 C8.03 3.67 5.06 3.34 2 3 C2 4.98 2 6.96 2 9 C4.31 9 6.62 9 9 9 C9 9.66 9 10.32 9 11 C6.69 11 4.38 11 2 11 C2 13.31 2 15.62 2 18 C4.97 18 7.94 18 11 18 C11 18.66 11 19.32 11 20 C9 21 9 21 0 21 C0 14.07 0 7.14 0 0 Z " fill="#2F2F2F" transform="translate(51,301)"/>
<path d="M0 0 C3.375 0.25 3.375 0.25 7 1 C8.98768584 3.33337033 9.00111449 5.01092198 9.3125 8.0625 C9 11 9 11 7.875 12.875 C6 14 6 14 0 14 C0 9.38 0 4.76 0 0 Z " fill="#F4F4F4" transform="translate(163,304)"/>
<path d="M0 0 C1.32 0 2.64 0 4 0 C4 5.94 4 11.88 4 18 C6.64 18 9.28 18 12 18 C12 18.99 12 19.98 12 21 C10.18757948 21.02687279 8.37504767 21.04633715 6.5625 21.0625 C5.55316406 21.07410156 4.54382813 21.08570313 3.50390625 21.09765625 C1 21 1 21 0 20 C-0.08669432 18.5112814 -0.10703494 17.018555 -0.09765625 15.52734375 C-0.09443359 14.62822266 -0.09121094 13.72910156 -0.08789062 12.80273438 C-0.07951172 11.85720703 -0.07113281 10.91167969 -0.0625 9.9375 C-0.05798828 8.98810547 -0.05347656 8.03871094 -0.04882812 7.06054688 C-0.0370011 4.70696935 -0.02052025 2.35351523 0 0 Z " fill="#4F4F4F" transform="translate(69,301)"/>
<path d="M0 0 C2.64 0 5.28 0 8 0 C8 0.33 8 0.66 8 1 C6.02 1 4.04 1 2 1 C2 3.97 2 6.94 2 10 C3.464375 9.87625 4.92875 9.7525 6.4375 9.625 C7.26121094 9.55539062 8.08492188 9.48578125 8.93359375 9.4140625 C9.95646484 9.20910156 9.95646484 9.20910156 11 9 C11.33 8.34 11.66 7.68 12 7 C11.79375 8.093125 11.5875 9.18625 11.375 10.3125 C10.59653475 14.0838401 10.59653475 14.0838401 13 17 C13 17.99 13 18.98 13 20 C11.68 20 10.36 20 9 20 C8.34 17.69 7.68 15.38 7 13 C5.35 13 3.7 13 2 13 C2 14.98 2 16.96 2 19 C1.34 19 0.68 19 0 19 C0 12.73 0 6.46 0 0 Z " fill="#121212" transform="translate(262,302)"/>
<path d="M0 0 C0 0.66 0 1.32 0 2 C2.475 2.495 2.475 2.495 5 3 C5 3.99 5 4.98 5 6 C4.13375 5.505 3.2675 5.01 2.375 4.5 C-4.40064761 1.60206518 -13.4277379 1.81383162 -20.375 4.125 C-24.69147219 6.05900377 -28.36483892 9.01259368 -32 12 C-32 11.01 -32 10.02 -32 9 C-31.34 9 -30.68 9 -30 9 C-30 8.34 -30 7.68 -30 7 C-28.68 6.67 -27.36 6.34 -26 6 C-26 5.34 -26 4.68 -26 4 C-25.01 4 -24.02 4 -23 4 C-23 3.34 -23 2.68 -23 2 C-15.26134446 -0.13480153 -7.99976044 -0.20483028 0 0 Z " fill="#BD3038" transform="translate(180,170)"/>
<path d="M0 0 C0.33 0 0.66 0 1 0 C1 4.62 1 9.24 1 14 C5.33229715 13.1395861 5.33229715 13.1395861 9 11 C9.07148199 9.64756083 9.08399454 8.29165633 9.0625 6.9375 C9.041875 5.638125 9.02125 4.33875 9 3 C9.66 3 10.32 3 11 3 C11.33 2.34 11.66 1.68 12 1 C14.38313638 4.57470457 14.64837918 5.78553535 14 10 C12.28313773 12.62269144 10.36048142 14.93304994 8 17 C7.34 17 6.68 17 6 17 C6 16.34 6 15.68 6 15 C4.02 15 2.04 15 0 15 C0 10.05 0 5.1 0 0 Z " fill="#4F4F4F" transform="translate(162,304)"/>
<path d="M0 0 C5.98654709 -0.59865471 5.98654709 -0.59865471 8.765625 1.04296875 C12.05065621 3.76189021 13.82867935 5.4923783 14.3125 9.75 C13.92590899 13.77054653 12.41771035 15.82675517 10 19 C8.68 18.34 7.36 17.68 6 17 C6.66 16.46375 7.32 15.9275 8 15.375 C10.25893152 13.11790102 10.25893152 13.11790102 10.4375 9.9375 C10.2180633 7.05683 10.2180633 7.05683 8.8125 5.1875 C6.99048435 3.83069615 6.99048435 3.83069615 4.4375 3.5 C2 3 2 3 0 0 Z " fill="#383838" transform="translate(243,301)"/>
<path d="M0 0 C3.05479605 -0.44704333 5.22381018 -0.43224942 7.95703125 1.08984375 C11.38494754 3.72186909 12.83610986 5.16565022 13.6875 9.5 C12.90531163 13.48204988 11.48054341 15.82180376 9 19 C7.68 18.34 6.36 17.68 5 17 C5.66 16.46375 6.32 15.9275 7 15.375 C9.25893152 13.11790102 9.25893152 13.11790102 9.4375 9.9375 C9.2180633 7.05683 9.2180633 7.05683 7.8125 5.1875 C5.57968261 3.72461964 3.62655933 3.35494045 1 3 C0.67 2.01 0.34 1.02 0 0 Z " fill="#313131" transform="translate(91,301)"/>
<path d="M0 0 C1.30102477 3.78911593 0.82490745 7.11909995 0.4375 11.0625 C-0.35089812 20.82468898 1.14030619 28.78076643 5.09765625 37.7109375 C6.04967974 40.12602739 6.56227923 42.44587675 7 45 C3.42799974 41.07690569 1.69762868 37.15489626 0.25 32.125 C0.034646 31.38193604 -0.18070801 30.63887207 -0.40258789 29.87329102 C-3.06699278 19.9442444 -3.21270919 9.8389219 0 0 Z " fill="#B7282F" transform="translate(134,185)"/>
<path d="M0 0 C4.10476224 5.03164404 5.55376399 7.35483215 5 14 C3.1875 17.1875 3.1875 17.1875 1 20 C0.3503125 21.06927734 0.3503125 21.06927734 -0.3125 22.16015625 C-2 24 -2 24 -4.48046875 24.390625 C-5.82044922 24.32101562 -5.82044922 24.32101562 -7.1875 24.25 C-8.08855469 24.21390625 -8.98960937 24.1778125 -9.91796875 24.140625 C-10.60503906 24.09421875 -11.29210937 24.0478125 -12 24 C-12 23.67 -12 23.34 -12 23 C-9.03 22.67 -6.06 22.34 -3 22 C-4.65 21.01 -6.3 20.02 -8 19 C-5.13822943 17.56911472 -3.06624227 18.40008303 0 19 C0 18.34 0 17.68 0 17 C0.66 17 1.32 17 2 17 C2 12.71 2 8.42 2 4 C1.34 4 0.68 4 0 4 C0 2.68 0 1.36 0 0 Z " fill="#C1464D" transform="translate(204,301)"/>
<path d="M0 0 C2.33294775 -0.04241723 4.66702567 -0.04092937 7 0 C7.33 0.33 7.66 0.66 8 1 C7.71269945 3.33944736 7.38063221 5.6739143 7 8 C4.69 8 2.38 8 0 8 C0 5.36 0 2.72 0 0 Z " fill="#DDDDDD" transform="translate(264,304)"/>
<path d="M0 0 C0.33 0 0.66 0 1 0 C1.02578125 1.12535156 1.0515625 2.25070313 1.078125 3.41015625 C1.42352631 13.85111164 2.80867196 23.00050549 6 33 C6.30679688 33.96679688 6.61359375 34.93359375 6.9296875 35.9296875 C7.59434069 37.96162727 8.29217326 39.98269378 9 42 C8.01 41.67 7.02 41.34 6 41 C3.24045178 34.96705666 1.72959604 28.56636436 1 22 C0.67 21.67 0.34 21.34 0 21 C-0.08685603 19.43827255 -0.10702219 17.87270656 -0.09765625 16.30859375 C-0.09443359 15.36435547 -0.09121094 14.42011719 -0.08789062 13.44726562 C-0.07951172 12.45404297 -0.07113281 11.46082031 -0.0625 10.4375 C-0.05798828 9.44041016 -0.05347656 8.44332031 -0.04882812 7.41601562 C-0.03700007 4.94395151 -0.02051849 2.47200482 0 0 Z " fill="#BF3D44" transform="translate(102,187)"/>
<path d="M0 0 C0.66 0.33 1.32 0.66 2 1 C-0.25594925 4.42088491 -2.51635285 7.8387766 -4.78100586 11.25390625 C-5.55145648 12.41714518 -6.32066485 13.58120785 -7.08862305 14.74609375 C-8.18995775 16.41620285 -9.29607476 18.08315524 -10.40234375 19.75 C-11.06741943 20.75546875 -11.73249512 21.7609375 -12.41772461 22.796875 C-13.20095093 23.88742188 -13.20095093 23.88742188 -14 25 C-14.33 25 -14.66 25 -15 25 C-15 23.35 -15 21.7 -15 20 C-14.34 20 -13.68 20 -13 20 C-13 19.34 -13 18.68 -13 18 C-12.34 18 -11.68 18 -11 18 C-10.67 16.68 -10.34 15.36 -10 14 C-9.34 14 -8.68 14 -8 14 C-8 12.68 -8 11.36 -8 10 C-7.34 10 -6.68 10 -6 10 C-6 9.01 -6 8.02 -6 7 C-5.34 7 -4.68 7 -4 7 C-4 6.01 -4 5.02 -4 4 C-3.34 4 -2.68 4 -2 4 C-2 3.34 -2 2.68 -2 2 C-1.34 2 -0.68 2 0 2 C0 1.34 0 0.68 0 0 Z " fill="#C32E36" transform="translate(150,104)"/>
<path d="M0 0 C0.99 0.66 1.98 1.32 3 2 C3 2.66 3 3.32 3 4 C0.36 4 -2.28 4 -5 4 C-5 5.32 -5 6.64 -5 8 C-2.525 8.99 -2.525 8.99 0 10 C-3.63557769 11.21185923 -4.63783618 10.59260392 -8 9 C-9 8 -9 8 -9.25 5.625 C-9 3 -9 3 -7.875 1.1875 C-5.15523346 -0.53501881 -3.15413751 -0.32855599 0 0 Z " fill="#272727" transform="translate(288,301)"/>
<path d="M0 0 C1.95000535 0.81152816 1.95000535 0.81152816 4.0390625 1.16796875 C7.49862988 2.22057546 8.87277665 4.90637048 10.96484375 7.75390625 C10.96484375 8.41390625 10.96484375 9.07390625 10.96484375 9.75390625 C11.62484375 9.75390625 12.28484375 9.75390625 12.96484375 9.75390625 C12.63484375 10.74390625 12.30484375 11.73390625 11.96484375 12.75390625 C11.22234375 11.70203125 10.47984375 10.65015625 9.71484375 9.56640625 C4.30370291 3.27467881 -3.71925241 0.77778548 -11.78515625 -0.05859375 C-13.20080734 -0.14095081 -14.61753131 -0.21159403 -16.03515625 -0.24609375 C-16.03515625 -0.57609375 -16.03515625 -0.90609375 -16.03515625 -1.24609375 C-9.85370606 -2.65899665 -5.82408281 -2.38729731 0 0 Z " fill="#C14247" transform="translate(228.03515625,172.24609375)"/>
<path d="M0 0 C0.99 0 1.98 0 3 0 C3.495 1.485 3.495 1.485 4 3 C3.67 3.33 3.34 3.66 3 4 C3.99 4.66 4.98 5.32 6 6 C2.34940677 5.54367585 -0.98152424 5.00523207 -4.53125 4 C-9.80487165 2.65591136 -15.08218914 2.54563971 -20.5 2.375 C-22.01980469 2.31699219 -22.01980469 2.31699219 -23.5703125 2.2578125 C-26.04670284 2.16436381 -28.52310151 2.07860127 -31 2 C-31 1.67 -31 1.34 -31 1 C-27.12501596 0.97082766 -23.25006042 0.95314327 -19.375 0.9375 C-18.28058594 0.92912109 -17.18617188 0.92074219 -16.05859375 0.91210938 C-14.46337891 0.90727539 -14.46337891 0.90727539 -12.8359375 0.90234375 C-11.37486572 0.89448853 -11.37486572 0.89448853 -9.88427734 0.88647461 C-6.85124679 1.00585494 -3.98084732 1.44133276 -1 2 C-0.67 1.34 -0.34 0.68 0 0 Z " fill="#915053" transform="translate(210,136)"/>
<path d="M0 0 C0.66 0.33 1.32 0.66 2 1 C0.75256064 3.5221286 -0.49787069 6.04270078 -1.75 8.5625 C-2.09804687 9.26697266 -2.44609375 9.97144531 -2.8046875 10.69726562 C-5.05837608 15.22551026 -7.45092412 19.6309758 -10 24 C-10.33 24 -10.66 24 -11 24 C-11 22.02 -11 20.04 -11 18 C-10.34 18 -9.68 18 -9 18 C-9 17.34 -9 16.68 -9 16 C-8.34 16 -7.68 16 -7 16 C-7 14.68 -7 13.36 -7 12 C-6.34 12 -5.68 12 -5 12 C-5 10.68 -5 9.36 -5 8 C-4.34 8 -3.68 8 -3 8 C-3 6.68 -3 5.36 -3 4 C-2.34 4 -1.68 4 -1 4 C-0.67 2.68 -0.34 1.36 0 0 Z " fill="#C02831" transform="translate(163,79)"/>
<path d="M0 0 C1.14926266 0.95421808 2.29430541 1.91352045 3.4375 2.875 C4.07558594 3.40867187 4.71367187 3.94234375 5.37109375 4.4921875 C7 6 7 6 8 8 C0.12309743 8.41136629 -6.50298299 7.436168 -14 5 C-14 4.67 -14 4.34 -14 4 C-10.37 4 -6.74 4 -3 4 C-3 4.33 -3 4.66 -3 5 C-0.03 5.495 -0.03 5.495 3 6 C2.505 5.38125 2.01 4.7625 1.5 4.125 C0 2 0 2 0 0 Z " fill="#BA3036" transform="translate(161,268)"/>
<path d="M0 0 C4.875 0.875 4.875 0.875 6 2 C6.07179964 3.51928038 6.08392007 5.04167482 6.0625 6.5625 C6.05347656 7.38878906 6.04445312 8.21507812 6.03515625 9.06640625 C6.02355469 9.70449219 6.01195312 10.34257812 6 11 C5.34 11 4.68 11 4 11 C3.34 12.32 2.68 13.64 2 15 C0.68 14.34 -0.64 13.68 -2 13 C-1.34 12.46375 -0.68 11.9275 0 11.375 C2.26833699 9.12031331 2.26833699 9.12031331 2.375 5.9375 C2.19767963 2.81457626 2.19767963 2.81457626 0 0 Z " fill="#282828" transform="translate(142,305)"/>
<path d="M0 0 C0.99 0.66 1.98 1.32 3 2 C3.36328125 3.875 3.36328125 3.875 3.3125 6 C3.30863281 6.70125 3.30476562 7.4025 3.30078125 8.125 C3 10 3 10 1 12 C1 9.03 1 6.06 1 3 C-1.31 3 -3.62 3 -6 3 C-5.938125 3.7425 -5.87625 4.485 -5.8125 5.25 C-6.03094296 8.45383006 -6.90250005 9.64031256 -9 12 C-8.91253716 10.56138706 -8.80434652 9.12402492 -8.6875 7.6875 C-8.62949219 6.88699219 -8.57148438 6.08648437 -8.51171875 5.26171875 C-7.41922406 0.43305903 -4.65609145 -0.58201143 0 0 Z " fill="#C5484F" transform="translate(176,33)"/>
<path d="M0 0 C0.66 0 1.32 0 2 0 C1.54177532 3.46941546 1.10868317 6.67395049 0 10 C-0.99 10.33 -1.98 10.66 -3 11 C-3.99 10.01 -4.98 9.02 -6 8 C-6.33 8.99 -6.66 9.98 -7 11 C-7.66 11 -8.32 11 -9 11 C-8.67 9.68 -8.34 8.36 -8 7 C-7.01 7 -6.02 7 -5 7 C-4.34 5.68 -3.68 4.36 -3 3 C-2.01 3.33 -1.02 3.66 0 4 C0 2.68 0 1.36 0 0 Z " fill="#591D1E" transform="translate(177,85)"/>
<path d="M0 0 C2.31 0 4.62 0 7 0 C7.625 1.875 7.625 1.875 8 4 C6 6 6 6 2.875 6.125 C1.451875 6.063125 1.451875 6.063125 0 6 C0 4.02 0 2.04 0 0 Z " fill="#EBEBEB" transform="translate(54,313)"/>
<path d="M0 0 C1.97265625 1.21875 1.97265625 1.21875 4 3 C4.49609375 5.15625 4.49609375 5.15625 4.4375 7.5 C4.43621094 8.2734375 4.43492188 9.046875 4.43359375 9.84375 C3.91300124 12.43264246 3.00359549 13.34185201 1 15 C0.01 14.67 -0.98 14.34 -2 14 C-1.34 13.34 -0.68 12.68 0 12 C0.24339551 9.10116917 0.24339551 9.10116917 0.125 5.875 C0.10695313 4.77929688 0.08890625 3.68359375 0.0703125 2.5546875 C0.04710938 1.71164062 0.02390625 0.86859375 0 0 Z " fill="#2A2A2A" transform="translate(123,303)"/>
<path d="M0 0 C3.44085442 3.44085442 3.94958979 7.1447352 4.23046875 11.91015625 C4.22653268 13.29433934 4.21205224 14.67852908 4.1875 16.0625 C4.18685547 16.75666016 4.18621094 17.45082031 4.18554688 18.16601562 C4.15367563 21.89495089 3.88337649 25.37462288 3 29 C2.67 29 2.34 29 2 29 C2.33 23.39 2.66 17.78 3 12 C2.34 12 1.68 12 1 12 C0.67 8.04 0.34 4.08 0 0 Z " fill="#C54048" transform="translate(251,183)"/>
<path d="M0 0 C0.33 0 0.66 0 1 0 C0.37741748 6.84840775 -1.03619501 16.03619501 -6 21 C-6.21278058 16.53160785 -5.59138085 13.17737474 -4 9 C-3.34 9 -2.68 9 -2 9 C-2 7.35 -2 5.7 -2 4 C-1.34 4 -0.68 4 0 4 C0 2.68 0 1.36 0 0 Z " fill="#C53C43" transform="translate(252,212)"/>
<path d="M0 0 C4.19360449 0.67097672 7.40334352 2.8558394 11 5 C9.5 6.1875 9.5 6.1875 7 7 C4.21175762 6.27101296 1.62334908 5.1843275 -1 4 C-0.67 2.68 -0.34 1.36 0 0 Z " fill="#691B1D" transform="translate(213,136)"/>
<path d="M0 0 C0.33 0 0.66 0 1 0 C1 2.64 1 5.28 1 8 C0.34 8 -0.32 8 -1 8 C-1 9.32 -1 10.64 -1 12 C-1.66 12 -2.32 12 -3 12 C-3 13.65 -3 15.3 -3 17 C-3.99 17.33 -4.98 17.66 -6 18 C-4.23536928 11.89262558 -2.30442525 5.92566493 0 0 Z " fill="#C0343B" transform="translate(163,55)"/>
<path d="M0 0 C0.639375 0.350625 1.27875 0.70125 1.9375 1.0625 C6.1430267 2.34990613 9.71464763 1.6908847 14 1 C13.34 2.32 12.68 3.64 12 5 C10.56344146 5.08131463 9.1255517 5.13933559 7.6875 5.1875 C6.48673828 5.23970703 6.48673828 5.23970703 5.26171875 5.29296875 C3 5 3 5 1.20703125 3.61328125 C0 2 0 2 0 0 Z " fill="#171717" transform="translate(110,316)"/>
<path d="M0 0 C5.30927425 -0.43518641 5.30927425 -0.43518641 8 0 C10.45321644 2.83653151 11 4.25123496 11 8 C9.68 8 8.36 8 7 8 C6.34 5.69 5.68 3.38 5 1 C3.35 1 1.7 1 0 1 C0 0.67 0 0.34 0 0 Z " fill="#4B4B4B" transform="translate(264,314)"/>
<path d="M0 0 C1.98 0 3.96 0 6 0 C6.5625 1.9375 6.5625 1.9375 7 4 C6 5 6 5 2.9375 5.0625 C1.4834375 5.0315625 1.4834375 5.0315625 0 5 C0 3.35 0 1.7 0 0 Z " fill="#EDEDED" transform="translate(54,304)"/>
<path d="M0 0 C0.33 0 0.66 0 1 0 C1.45732667 5.71658336 0.52273754 8.48649253 -3 13 C-4.32 12.34 -5.64 11.68 -7 11 C-6.401875 10.484375 -5.80375 9.96875 -5.1875 9.4375 C-2.4926464 6.43466313 -1.44279381 3.75126391 0 0 Z " fill="#3B3B3B" transform="translate(103,307)"/>
<path d="M0 0 C-4 2 -4 2 -6.125 2.6875 C-9.0943655 4.76605585 -9.2429305 7.59318726 -10 11 C-10.33 11 -10.66 11 -11 11 C-11.48076923 4.75 -11.48076923 4.75 -9.4375 1.5625 C-6.18129203 -0.5248128 -3.79004984 -0.2915423 0 0 Z " fill="#1C1C1C" transform="translate(96,302)"/>
<path d="M0 0 C0.66 0.33 1.32 0.66 2 1 C0.12856382 7.70597964 -1.93997649 14.34992411 -4 21 C-5.09178911 17.72463268 -4.93042848 16.95586381 -4.00390625 13.76953125 C-3.77509766 12.96708984 -3.54628906 12.16464844 -3.31054688 11.33789062 C-2.94026367 10.08782227 -2.94026367 10.08782227 -2.5625 8.8125 C-2.31951172 7.96751953 -2.07652344 7.12253906 -1.82617188 6.25195312 C-1.22506507 4.1657589 -0.61352166 2.08257699 0 0 Z " fill="#D2B5B7" transform="translate(181,58)"/>
<path d="M0 0 C4.62 0 9.24 0 14 0 C14 0.66 14 1.32 14 2 C15.65 2.33 17.3 2.66 19 3 C19 3.99 19 4.98 19 6 C18.19949219 5.58427734 18.19949219 5.58427734 17.3828125 5.16015625 C11.56574586 2.33213596 6.4451976 1.26911055 0 1 C0 0.67 0 0.34 0 0 Z " fill="#BC272F" transform="translate(166,170)"/>
<path d="M0 0 C0.66 0 1.32 0 2 0 C2.33 3.3 2.66 6.6 3 10 C2.01 10.33 1.02 10.66 0 11 C-1.62651522 7.74696956 -1.11453156 4.60774398 -1 1 C-0.67 0.67 -0.34 0.34 0 0 Z " fill="#282828" transform="translate(109,306)"/>
<path d="M0 0 C0.66 0.33 1.32 0.66 2 1 C0.33333333 4.33333333 -1.33333333 7.66666667 -3 11 C-3.66 11 -4.32 11 -5 11 C-5 11.66 -5 12.32 -5 13 C-5.66 12.67 -6.32 12.34 -7 12 C-4.69 8.04 -2.38 4.08 0 0 Z " fill="#8B4145" transform="translate(195,287)"/>
<path d="M0 0 C0.33 0.66 0.66 1.32 1 2 C-0.43775696 5.21783702 -2.04417512 8.06626269 -4 11 C-4.66 11 -5.32 11 -6 11 C-6.33 12.32 -6.66 13.64 -7 15 C-7.66 15 -8.32 15 -9 15 C-7.61219205 11.10993227 -5.7847773 8.03441292 -3.375 4.6875 C-2.74335938 3.80449219 -2.11171875 2.92148438 -1.4609375 2.01171875 C-0.97882813 1.34785156 -0.49671875 0.68398437 0 0 Z " fill="#C03940" transform="translate(136,109)"/>
<path d="M0 0 C4.95 0.99 4.95 0.99 10 2 C9.67 2.99 9.34 3.98 9 5 C5.625 4.75 5.625 4.75 2 4 C1.34 2.68 0.68 1.36 0 0 Z " fill="#262626" transform="translate(279,317)"/>
<path d="M0 0 C4.20710482 5.15709623 5.12440607 7.28207197 5 14 C4.01 14.495 4.01 14.495 3 15 C2.67 11.37 2.34 7.74 2 4 C1.34 4 0.68 4 0 4 C0 2.68 0 1.36 0 0 Z " fill="#C33C44" transform="translate(204,301)"/>
<path d="M0 0 C2 2 2 2 2 6 C1.360625 6.12375 0.72125 6.2475 0.0625 6.375 C-0.9584375 6.684375 -0.9584375 6.684375 -2 7 C-2.33 7.66 -2.66 8.32 -3 9 C-3.66 9 -4.32 9 -5 9 C-3.90931332 5.22454612 -3.0916909 2.52956528 0 0 Z " fill="#803F41" transform="translate(175,83)"/>
<path d="M0 0 C2.47787534 4.26956982 2.04668791 7.313911 1 12 C-0.0625 14.5 -0.0625 14.5 -1 16 C-2.03038433 12.0585998 -1.87693282 9.16384848 -1.0625 5.1875 C-0.86785156 4.21167969 -0.67320312 3.23585937 -0.47265625 2.23046875 C-0.31667969 1.49441406 -0.16070312 0.75835937 0 0 Z " fill="#4C2324" transform="translate(182,59)"/>
<path d="M0 0 C1.5 1.125 1.5 1.125 3 3 C3.1875 6.1875 3.1875 6.1875 3 9 C1.66666667 9 0.33333333 9 -1 9 C-1.33 6.69 -1.66 4.38 -2 2 C-1.34 2 -0.68 2 0 2 C0 1.34 0 0.68 0 0 Z " fill="#656565" transform="translate(173,305)"/>
<path d="M0 0 C4.20240011 3.71750779 6.99782679 8.31660979 10 13 C9.01 13.495 9.01 13.495 8 14 C7.16094435 12.87926138 6.32892169 11.75325453 5.5 10.625 C4.80390625 9.68527344 4.80390625 9.68527344 4.09375 8.7265625 C3 7 3 7 3 5 C2.01 5 1.02 5 0 5 C0 3.35 0 1.7 0 0 Z " fill="#BD3339" transform="translate(154,233)"/>
<path d="M0 0 C3 0.25 3 0.25 5 2.25 C5.125 4.875 5.125 4.875 5 7.25 C4.34 7.25 3.68 7.25 3 7.25 C3 5.93 3 4.61 3 3.25 C0.36 2.92 -2.28 2.59 -5 2.25 C-3 0.25 -3 0.25 0 0 Z " fill="#272727" transform="translate(59,301.75)"/>
<path d="M0 0 C1.375 1.875 1.375 1.875 2 4 C1.67 4.99 1.34 5.98 1 7 C0.278125 6.195625 -0.44375 5.39125 -1.1875 4.5625 C-4.02515689 1.97707928 -5.27166147 1.31957187 -9 1 C-5.69708067 -1.07961587 -3.69218461 -1.36027854 0 0 Z " fill="#272727" transform="translate(172,303)"/>
<path d="M0 0 C0.33 0 0.66 0 1 0 C1 1.65 1 3.3 1 5 C1.66 5 2.32 5 3 5 C1.88820837 8.33537489 0.52588702 9.63707344 -2 12 C-2 11.01 -2 10.02 -2 9 C-2.99 8.67 -3.98 8.34 -5 8 C-4.34 7.67 -3.68 7.34 -3 7 C-2.34 7.33 -1.68 7.66 -1 8 C-0.67 5.36 -0.34 2.72 0 0 Z " fill="#E4AAAC" transform="translate(194,280)"/>
<path d="M0 0 C1.32 0 2.64 0 4 0 C9 5.22727273 9 5.22727273 9 8 C9.66 8 10.32 8 11 8 C10.67 8.99 10.34 9.98 10 11 C9.61328125 10.51789063 9.2265625 10.03578125 8.828125 9.5390625 C8.30734375 8.90742188 7.7865625 8.27578125 7.25 7.625 C6.48429688 6.68527344 6.48429688 6.68527344 5.703125 5.7265625 C3.91800519 3.91687682 2.32050356 2.99882545 0 2 C0 1.34 0 0.68 0 0 Z " fill="#BD2B32" transform="translate(230,174)"/>
<path d="M0 0 C1.73869143 3.47738286 0.87933274 7.30549005 0 11 C-2.0625 13.5625 -2.0625 13.5625 -4 15 C-3.43179252 9.54520815 -2.05362055 5.08940744 0 0 Z " fill="#96676A" transform="translate(127,161)"/>
<path d="M0 0 C0.66 0.99 1.32 1.98 2 3 C1.01 4.98 0.02 6.96 -1 9 C-1.66 9 -2.32 9 -3 9 C-3.33 10.32 -3.66 11.64 -4 13 C-4.66 13 -5.32 13 -6 13 C-5.34 11.02 -4.68 9.04 -4 7 C-3.34 7 -2.68 7 -2 7 C-1.34 4.69 -0.68 2.38 0 0 Z " fill="#C73D46" transform="translate(153,79)"/>
<path d="M0 0 C0.99 0.33 1.98 0.66 3 1 C4.1875 3.5625 4.1875 3.5625 5 6 C3.68 5.34 2.36 4.68 1 4 C1 7.3 1 10.6 1 14 C0.67 14 0.34 14 0 14 C0 9.38 0 4.76 0 0 Z " fill="#A4A4A4" transform="translate(218,307)"/>
<path d="M0 0 C0.33 0 0.66 0 1 0 C1 6.27 1 12.54 1 19 C0.01 18.67 -0.98 18.34 -2 18 C-1.505 16.515 -1.505 16.515 -1 15 C-0.77281504 12.43365139 -0.58391816 9.88321893 -0.4375 7.3125 C-0.39431641 6.61060547 -0.35113281 5.90871094 -0.30664062 5.18554688 C-0.2008264 3.45724794 -0.09993419 1.7286489 0 0 Z " fill="#040404" transform="translate(230,302)"/>
<path d="M0 0 C1.68178661 2.52267991 2.90106742 4.81091823 4.125 7.5625 C4.47820312 8.34753906 4.83140625 9.13257813 5.1953125 9.94140625 C6 12 6 12 6 14 C5.34 14 4.68 14 4 14 C0.55064383 9.72279835 0.3336727 5.28123341 0 0 Z " fill="#D0555A" transform="translate(143,210)"/>
<path d="M0 0 C0.66 0 1.32 0 2 0 C0.44499019 3.81684226 -2.03595495 6.19195732 -5 9 C-4.67 6.69 -4.34 4.38 -4 2 C-2.68 2 -1.36 2 0 2 C0 1.34 0 0.68 0 0 Z " fill="#752A2E" transform="translate(133,160)"/>
<path d="M0 0 C0.33 0 0.66 0 1 0 C1 1.65 1 3.3 1 5 C3.93443402 4.73343428 3.93443402 4.73343428 7 4 C7.66 3.01 8.32 2.02 9 1 C9.33 3.31 9.66 5.62 10 8 C6.7 7.34 3.4 6.68 0 6 C0 4.02 0 2.04 0 0 Z " fill="#474747" transform="translate(53,304)"/>
<path d="M0 0 C0.33 0 0.66 0 1 0 C1 1.98 1 3.96 1 6 C-0.98 6.99 -0.98 6.99 -3 8 C-3 8.66 -3 9.32 -3 10 C-3.66 10 -4.32 10 -5 10 C-3.66654496 6.40992874 -2.1056769 3.20429093 0 0 Z " fill="#C4363E" transform="translate(236,228)"/>
<path d="M0 0 C1.98 0.66 3.96 1.32 6 2 C6.33 1.34 6.66 0.68 7 0 C7.99 0.99 8.98 1.98 10 3 C9.67 3.99 9.34 4.98 9 6 C8.01 5.34 7.02 4.68 6 4 C4.01200182 3.29835358 2.01301483 2.62627128 0 2 C0 1.34 0 0.68 0 0 Z " fill="#462123" transform="translate(224,142)"/>
<path d="M0 0 C3.33727786 1.17255709 5.77437487 2.18868404 8 5 C8 5.66 8 6.32 8 7 C5.13275314 6.42655063 4.1385485 6.1385485 2 4 C2.33 3.34 2.66 2.68 3 2 C2.01 2 1.02 2 0 2 C0 1.34 0 0.68 0 0 Z " fill="#180E0E" transform="translate(222,137)"/>
<path d="M0 0 C0.7425 0.61875 1.485 1.2375 2.25 1.875 C4.48801188 3.60437281 6.43739987 4.86106661 9 6 C5.71023192 7.09658936 4.28696233 6.79953138 1 6 C0.67 4.02 0.34 2.04 0 0 Z " fill="#8C151B" transform="translate(193,317)"/>
<path d="M0 0 C0.66 0.99 1.32 1.98 2 3 C0.1875 5 0.1875 5 -2 7 C-2.99 7 -3.98 7 -5 7 C-3.70700306 4.11562221 -2.34058637 2.12780579 0 0 Z " fill="#C43539" transform="translate(144,171)"/>
<path d="M0 0 C0.33 0.99 0.66 1.98 1 3 C-0.8125 6.1875 -0.8125 6.1875 -3 9 C-3.66 9 -4.32 9 -5 9 C-3.90931332 5.22454612 -3.0916909 2.52956528 0 0 Z " fill="#773233" transform="translate(188,300)"/>
<path d="M0 0 C6.625 -0.25 6.625 -0.25 10 2 C10 2.66 10 3.32 10 4 C8.72125 3.896875 7.4425 3.79375 6.125 3.6875 C5.04605469 3.60048828 5.04605469 3.60048828 3.9453125 3.51171875 C2 3 2 3 0 0 Z " fill="#3F3F3F" transform="translate(243,301)"/>
<path d="M0 0 C2.50037734 2.17424117 3.43628586 3.73045798 4 7 C2.35 7 0.7 7 -1 7 C-0.67 4.69 -0.34 2.38 0 0 Z " fill="#CB3A3E" transform="translate(197,290)"/>
<path d="M0 0 C-1.875 4.75 -1.875 4.75 -3 7 C-3.99 6.01 -4.98 5.02 -6 4 C-5.67 3.01 -5.34 2.02 -5 1 C-2 0 -2 0 0 0 Z " fill="#C11E24" transform="translate(198,263)"/>
<path d="M0 0 C1 2 1 2 0.44140625 3.9453125 C0.15136719 4.66460937 -0.13867188 5.38390625 -0.4375 6.125 C-0.72496094 6.84945312 -1.01242188 7.57390625 -1.30859375 8.3203125 C-1.53675781 8.87460938 -1.76492187 9.42890625 -2 10 C-2.99 10 -3.98 10 -5 10 C-3.66511872 6.40608886 -2.03977277 3.24509304 0 0 Z " fill="#CD4E53" transform="translate(146,92)"/>
<path d="M0 0 C3.44216672 2.6598561 3.99504674 5.90288286 5 10 C2 9 2 9 0.8125 6.6875 C0 4 0 4 0 0 Z " fill="#BB2F36" transform="translate(106,219)"/>
<path d="M0 0 C1.04702186 3.7264085 1.07442057 7.13013042 1 11 C0.01 11.495 0.01 11.495 -1 12 C-2.45606519 7.47907032 -1.27032841 4.48351204 0 0 Z " fill="#773134" transform="translate(180,66)"/>
<path d="M0 0 C4.875 0.875 4.875 0.875 6 2 C6.07179964 3.51928038 6.08392007 5.04167482 6.0625 6.5625 C6.05347656 7.38878906 6.04445312 8.21507812 6.03515625 9.06640625 C6.01775391 10.02353516 6.01775391 10.02353516 6 11 C5.67 11 5.34 11 5 11 C4.87625 9.081875 4.87625 9.081875 4.75 7.125 C4.54130069 4.94666582 4.54130069 4.94666582 4 3 C2.07935207 1.4100567 2.07935207 1.4100567 0 1 C0 0.67 0 0.34 0 0 Z " fill="#585858" transform="translate(142,305)"/>
<path d="M0 0 C0.99 0.66 1.98 1.32 3 2 C3.1875 5.625 3.1875 5.625 3 9 C1.24901874 6.37352812 -0.38731308 3.71224618 -2 1 C-1.34 0.67 -0.68 0.34 0 0 Z " fill="#272727" transform="translate(253,304)"/>
<path d="M0 0 C4.95 0.99 4.95 0.99 10 2 C9.67 2.66 9.34 3.32 9 4 C6.1875 4.25 6.1875 4.25 3 4 C2.01 2.68 1.02 1.36 0 0 Z " fill="#B92B32" transform="translate(187,176)"/>
<path d="M0 0 C-1.15173355 2.46800047 -2.04783565 4.04783565 -4 6 C-6.125 5.625 -6.125 5.625 -8 5 C-2.25 0 -2.25 0 0 0 Z " fill="#EBD2D0" transform="translate(146,152)"/>
<path d="M0 0 C0.33 0.99 0.66 1.98 1 3 C-0.875 6.1875 -0.875 6.1875 -3 9 C-3.33 9 -3.66 9 -4 9 C-4 7.35 -4 5.7 -4 4 C-3.34 4 -2.68 4 -2 4 C-2 3.34 -2 2.68 -2 2 C-1.34 2 -0.68 2 0 2 C0 1.34 0 0.68 0 0 Z " fill="#BE222C" transform="translate(139,120)"/>
<path d="M0 0 C3.3 0.99 6.6 1.98 10 3 C10 3.33 10 3.66 10 4 C7.03 3.67 4.06 3.34 1 3 C0.67 2.01 0.34 1.02 0 0 Z " fill="#C6393F" transform="translate(147,261)"/>
<path d="M0 0 C0.33 0 0.66 0 1 0 C1 1.98 1 3.96 1 6 C-0.98 6.99 -0.98 6.99 -3 8 C-1.125 1.125 -1.125 1.125 0 0 Z " fill="#C33D41" transform="translate(240,220)"/>
<path d="M0 0 C3.34373475 0.55728913 6.03312999 1.35173889 9 3 C8.34 3.66 7.68 4.32 7 5 C7 4.34 7 3.68 7 3 C5.02 3 3.04 3 1 3 C0.67 2.01 0.34 1.02 0 0 Z " fill="#CF5159" transform="translate(225,162)"/>
<path d="M0 0 C3.34373475 0.55728913 6.03312999 1.35173889 9 3 C8.34 3.66 7.68 4.32 7 5 C7 4.34 7 3.68 7 3 C5.02 3 3.04 3 1 3 C0.67 2.01 0.34 1.02 0 0 Z " fill="#CF4F55" transform="translate(180,162)"/>
<path d="M0 0 C0.33 0 0.66 0 1 0 C1.33 2.97 1.66 5.94 2 9 C0.35 9.33 -1.3 9.66 -3 10 C-2.34 9.01 -1.68 8.02 -1 7 C-0.60612212 4.67612053 -0.26513915 2.34206251 0 0 Z " fill="#535353" transform="translate(124,308)"/>
<path d="M0 0 C2.97 0 5.94 0 9 0 C6.08235 1.9451 4.37462715 2.45276317 1 3 C0.67 2.01 0.34 1.02 0 0 Z " fill="#BD3037" transform="translate(196,270)"/>
<path d="M0 0 C3 1 3 1 4.25 2.8125 C5.12637306 5.3685881 4.74387955 6.46549611 4 9 C3.3309224 7.68872739 2.66480194 6.3759455 2 5.0625 C1.62875 4.33160156 1.2575 3.60070312 0.875 2.84765625 C0 1 0 1 0 0 Z " fill="#BC3037" transform="translate(136,221)"/>
<path d="M0 0 C0.66 0.33 1.32 0.66 2 1 C0.25 3.5 0.25 3.5 -2 6 C-3.32 6 -4.64 6 -6 6 C-6 5.34 -6 4.68 -6 4 C-4.36368108 2.95107762 -2.69514137 1.95093297 -1 1 C-0.67 0.67 -0.34 0.34 0 0 Z " fill="#CB3F47" transform="translate(198,164)"/>
<path d="M0 0 C0.33 1.32 0.66 2.64 1 4 C-1.97 6.475 -1.97 6.475 -5 9 C-3.7508258 5.54074837 -2.32472205 2.85306797 0 0 Z " fill="#F6C9CC" transform="translate(127,141)"/>
</svg>
